<svg width="38" height="25" fill="none" xmlns="http://www.w3.org/2000/svg"><g clip-path="url(#a)"><path fill-rule="evenodd" clip-rule="evenodd" d="M35 .406H3c-1.7 0-3 1.3-3 3v18c0 1.7 1.4 3 3 3h32c1.7 0 3-1.3 3-3v-18c0-1.7-1.4-3-3-3z" fill="#FFB3C7"/><path fill-rule="evenodd" clip-rule="evenodd" d="M35 1.406c1.1 0 2 .9 2 2v18c0 1.1-.9 2-2 2H3c-1.1 0-2-.9-2-2v-18c0-1.1.9-2 2-2h32z" fill="#FFB3C7"/><path d="M34.117 13.59c-.487 0-.882.4-.882.892 0 .493.395.893.882.893.488 0 .883-.4.883-.893a.888.888 0 0 0-.883-.892zm-2.903-.69c0-.676-.57-1.223-1.274-1.223-.704 0-1.274.547-1.274 1.222 0 .675.57 1.223 1.274 1.223.704 0 1.274-.548 1.274-1.223v.001zm.005-2.376h1.406v4.75h-1.406v-.303c-.41.284-.896.436-1.394.435-1.369 0-2.478-1.122-2.478-2.507 0-1.384 1.11-2.506 2.478-2.506.517 0 .996.16 1.394.435v-.304zm-11.253.62v-.62h-1.44v4.75h1.443v-2.217c0-.749.802-1.15 1.359-1.15h.016v-1.382c-.57 0-1.096.247-1.378.618zm-3.586 1.755c0-.675-.57-1.222-1.274-1.222-.703 0-1.274.547-1.274 1.222 0 .675.57 1.223 1.274 1.223.704 0 1.274-.548 1.274-1.223zm.005-2.375h1.406v4.75h-1.406v-.303c-.41.284-.897.436-1.395.435-1.368 0-2.478-1.122-2.478-2.507 0-1.384 1.11-2.506 2.478-2.506.517 0 .997.16 1.394.435v-.304h.001zm8.463-.128c-.561 0-1.093.177-1.448.663v-.535H22v4.75h1.417v-2.496c0-.722.479-1.076 1.055-1.076.618 0 .973.374.973 1.066v2.507h1.405v-3.02c0-1.107-.87-1.859-2.002-1.859zm-14.383 4.88h1.472v-6.87h-1.472v6.87zm-6.465 0h1.558v-6.87H4v6.87zm5.45-6.87a5.497 5.497 0 0 1-1.593 3.9l2.154 2.97H8.086l-2.341-3.228.604-.458a3.961 3.961 0 0 0 1.577-3.184H9.45z" fill="#0A0B09"/></g><defs><clipPath id="a"><path fill="#fff" transform="translate(0 .406)" d="M0 0h38v24H0z"/></clipPath></defs></svg>