<svg width="38" height="25" fill="none" xmlns="http://www.w3.org/2000/svg"><g clip-path="url(#a)"><path opacity=".07" d="M35 .406H3c-1.7 0-3 1.3-3 3v18c0 1.7 1.4 3 3 3h32c1.7 0 3-1.3 3-3v-18c0-1.7-1.4-3-3-3z" fill="#000"/><path d="M35 1.406c1.1 0 2 .9 2 2v18c0 1.1-.9 2-2 2H3c-1.1 0-2-.9-2-2v-18c0-1.1.9-2 2-2h32z" fill="#5A31F4"/><path d="M21.382 10.12c0 1.667-1.177 2.857-2.82 2.857h-1.55a.133.133 0 0 0-.12.08.129.129 0 0 0-.01.05v2.191a.13.13 0 0 1-.08.12.13.13 0 0 1-.05.01h-1.084a.13.13 0 0 1-.13-.13V7.391a.127.127 0 0 1 .08-.12.129.129 0 0 1 .05-.01h2.9c1.637 0 2.814 1.19 2.814 2.858zm-1.352 0c0-.959-.658-1.659-1.55-1.659h-1.468a.13.13 0 0 0-.12.08.13.13 0 0 0-.01.05v3.05a.127.127 0 0 0 .08.12c.016.007.033.01.05.01h1.468c.892.005 1.55-.695 1.55-1.652zm1.674 3.79a1.528 1.528 0 0 1 .647-1.317c.423-.316 1.084-.48 2.055-.514l1.033-.036v-.303c0-.607-.41-.863-1.068-.863-.658 0-1.075.231-1.17.61a.127.127 0 0 1-.125.09h-1.022a.13.13 0 0 1-.13-.147c.152-.898.904-1.58 2.494-1.58 1.692 0 2.303.783 2.303 2.276v3.172a.13.13 0 0 1-.132.13h-1.03a.13.13 0 0 1-.13-.13v-.237a.096.096 0 0 0-.118-.096.1.1 0 0 0-.05.027c-.31.334-.808.575-1.607.575-1.175 0-1.95-.607-1.95-1.657zm3.735-.687v-.246l-1.339.07c-.705.036-1.115.326-1.115.816 0 .444.376.69 1.034.69.893 0 1.42-.48 1.42-1.33zm2.316 4.6v-.919a.13.13 0 0 1 .1-.125.132.132 0 0 1 .057-.002c.158.03.318.044.48.044a1.23 1.23 0 0 0 1.244-.876l.067-.21a.133.133 0 0 0 0-.089l-2.145-5.47a.13.13 0 0 1 .122-.18h1.04a.132.132 0 0 1 .123.084l1.456 3.86a.131.131 0 0 0 .125.087.133.133 0 0 0 .125-.088l1.265-3.848a.13.13 0 0 1 .126-.09h1.076a.134.134 0 0 1 .132.116.134.134 0 0 1-.008.063l-2.295 6.076c-.528 1.413-1.433 1.773-2.43 1.773a1.959 1.959 0 0 1-.56-.066.132.132 0 0 1-.1-.14zM8.57 6.806a5.363 5.363 0 0 0-3.683 1.427.231.231 0 0 0-.029.31l.618.84a.236.236 0 0 0 .362.027A3.823 3.823 0 0 1 8.576 8.3c2.12 0 3.227 1.584 3.227 3.15 0 1.7-1.163 2.898-2.835 2.921-1.292 0-2.266-.85-2.266-1.974a1.908 1.908 0 0 1 .713-1.48.231.231 0 0 0 .033-.324l-.65-.815a.236.236 0 0 0-.339-.034 3.43 3.43 0 0 0-.942 1.183 3.39 3.39 0 0 0-.337 1.47c0 1.935 1.655 3.452 3.775 3.464h.03c2.517-.032 4.337-1.884 4.337-4.415 0-2.247-1.667-4.64-4.752-4.64z" fill="#fff"/></g><defs><clipPath id="a"><path fill="#fff" transform="translate(0 .406)" d="M0 0h38v24H0z"/></clipPath></defs></svg>