<svg width="50" height="50" viewBox="0 0 50 50" fill="none" xmlns="http://www.w3.org/2000/svg">
<path d="M16 48.5C15.8443 48.5008 15.6893 48.4789 15.54 48.435C15.3317 48.3737 15.1376 48.2718 14.9689 48.1351C14.8002 47.9984 14.6602 47.8297 14.557 47.6387C14.4538 47.4476 14.3895 47.2381 14.3677 47.022C14.3459 46.806 14.367 46.5878 14.43 46.38L18.965 30.5H12.16C11.9575 30.5072 11.7557 30.4742 11.566 30.4029C11.3764 30.3317 11.2027 30.2237 11.055 30.085C10.7306 29.7998 10.5322 29.3979 10.5032 28.967C10.4741 28.536 10.6168 28.1111 10.9 27.785L32.09 2.09499C32.2894 1.85421 32.5535 1.67545 32.8512 1.57977C33.1488 1.4841 33.4676 1.4755 33.77 1.55499C33.978 1.60452 34.1738 1.69561 34.3456 1.82278C34.5175 1.94995 34.6618 2.11058 34.77 2.29499C34.9933 2.66564 35.0616 3.10936 34.96 3.52999L30.92 21.435H37.86C38.1737 21.4368 38.4804 21.5283 38.7439 21.6986C39.0073 21.869 39.2165 22.1112 39.3469 22.3966C39.4772 22.6819 39.5232 22.9987 39.4795 23.3093C39.4357 23.62 39.3041 23.9117 39.1 24.15V24.175L17.23 47.95C17.0764 48.1246 16.8871 48.264 16.6749 48.3589C16.4626 48.4538 16.2325 48.5019 16 48.5ZM20.295 28.5C20.4497 28.5002 20.6022 28.5363 20.7406 28.6055C20.8789 28.6746 20.9994 28.7749 21.0924 28.8985C21.1855 29.0221 21.2486 29.1655 21.2768 29.3176C21.305 29.4697 21.2975 29.6263 21.255 29.775L16.765 45.5L37.045 23.435H29.67C29.5179 23.4387 29.367 23.4077 29.2287 23.3443C29.0905 23.281 28.9685 23.1869 28.872 23.0692C28.7756 22.9516 28.7073 22.8135 28.6723 22.6655C28.6373 22.5174 28.6365 22.3634 28.67 22.215L32.67 4.51499L12.9 28.5H20.295Z" fill="black"/>
</svg>
