<svg width="38" height="25" fill="none" xmlns="http://www.w3.org/2000/svg"><g clip-path="url(#a)"><path opacity=".07" d="M35 .406H3c-1.7 0-3 1.3-3 3v18c0 1.7 1.4 3 3 3h32c1.7 0 3-1.3 3-3v-18c0-1.7-1.4-3-3-3z" fill="#000"/><path d="M35 1.406c1.1 0 2 .9 2 2v18c0 1.1-.9 2-2 2H3c-1.1 0-2-.9-2-2v-18c0-1.1.9-2 2-2h32z" fill="#fff"/><path d="M18.093 12.383v3.2h-1.018v-7.9h2.691a2.447 2.447 0 0 1 1.747.691 2.28 2.28 0 0 1 .11 3.224l-.11.116c-.47.447-1.098.69-1.747.675l-1.673-.006zm0-3.733v2.788h1.698a1.348 1.348 0 0 0 1.37-1.117 1.39 1.39 0 0 0-1.37-1.64l-1.698-.03zm6.484 1.348c.65-.03 1.286.189 1.778.614.445.43.682 1.03.65 1.649v3.334h-.97v-.767h-.048a1.93 1.93 0 0 1-1.673.931 2.17 2.17 0 0 1-1.496-.533 1.667 1.667 0 0 1-.613-1.324 1.606 1.606 0 0 1 .613-1.335 2.745 2.745 0 0 1 1.698-.515c.517-.02 1.03.093 1.49.33v-.207a1.136 1.136 0 0 0-.417-.902 1.416 1.416 0 0 0-.98-.367 1.544 1.544 0 0 0-1.319.716l-.895-.563a2.489 2.489 0 0 1 2.182-1.06zm-1.287 3.929a.789.789 0 0 0 .337.662c.223.175.5.268.785.262.429 0 .84-.17 1.146-.472.305-.285.478-.684.478-1.102a2.047 2.047 0 0 0-1.324-.374 1.716 1.716 0 0 0-1.03.293.884.884 0 0 0-.392.73zm9.286-3.75-3.39 7.79h-1.048l1.281-2.728-2.224-5.063h1.103l1.612 3.886 1.569-3.885h1.097z" fill="#5F6368"/><path d="M13.986 11.69c0-.308-.024-.616-.073-.92h-4.29v1.747h2.451a2.096 2.096 0 0 1-.9 1.373v1.134h1.464a4.433 4.433 0 0 0 1.348-3.334z" fill="#4285F4"/><path d="M9.629 16.127a4.352 4.352 0 0 0 3.01-1.097l-1.466-1.14a2.752 2.752 0 0 1-4.094-1.44H5.577v1.17a4.53 4.53 0 0 0 4.052 2.507z" fill="#34A853"/><path d="M7.079 12.456a2.709 2.709 0 0 1 0-1.735v-1.17H5.577a4.505 4.505 0 0 0 0 4.075l1.502-1.17z" fill="#FBBC04"/><path d="M9.629 8.846a2.452 2.452 0 0 1 1.74.68l1.3-1.293A4.37 4.37 0 0 0 9.604 7.05a4.53 4.53 0 0 0-4.027 2.5l1.502 1.171a2.715 2.715 0 0 1 2.55-1.875z" fill="#EA4335"/></g><defs><clipPath id="a"><path fill="#fff" transform="translate(0 .406)" d="M0 0h38v24H0z"/></clipPath></defs></svg>